<?xml version="1.0" standalone="no"?>
<!DOCTYPE svg PUBLIC "-//W3C//DTD SVG 1.1//EN" "http://www.w3.org/Graphics/SVG/1.1/DTD/svg11.dtd" >
<svg xmlns="http://www.w3.org/2000/svg" xmlns:xlink="http://www.w3.org/1999/xlink" version="1.1">
<metadata>
Created by FontForge 20150824 at Sun Mar 27 07:17:57 2016
 By Everything Fonts
Toto 2011 [toto@ispx.com.ph + to22to@gmail.com] For personal use only.
</metadata>
<defs>
<font id="K22Didoni" horiz-adv-x="586" >
  <font-face 
    font-family="K22Didoni"
    font-weight="400"
    font-stretch="normal"
    units-per-em="1000"
    panose-1="0 0 0 0 0 0 0 0 0 0"
    ascent="750"
    descent="-250"
    x-height="480"
    cap-height="700"
    bbox="-68 -205 1277 750"
    underline-thickness="50"
    underline-position="-150"
    unicode-range="U+0020-2222"
  />
<missing-glyph horiz-adv-x="0" 
 />
    <glyph glyph-name=".notdef" horiz-adv-x="0" 
 />
    <glyph glyph-name=".null" horiz-adv-x="0" 
 />
    <glyph glyph-name="nonmarkingreturn" horiz-adv-x="333" 
 />
    <glyph glyph-name="space" unicode=" " horiz-adv-x="350" 
 />
    <glyph glyph-name="exclam" unicode="!" horiz-adv-x="286" 
d="M43 91q0 41 29.5 70.5t70.5 29.5t70.5 -29.5t29.5 -70.5t-29.5 -70.5t-70.5 -29.5t-70.5 29.5t-29.5 70.5zM133 210v94q0 25 -24.5 68t-49.5 100.5t-25 116.5q0 49 35.5 85t73.5 36t73.5 -36t35.5 -85q0 -59 -24.5 -116t-49.5 -100.5t-25 -68.5v-94h-20z" />
    <glyph glyph-name="dollar" unicode="$" horiz-adv-x="587" 
d="M348 552q0 52 45 77q16 10 16 14t-18 13q-27 9 -55 12v-236q42 -17 61 -24.5t52 -23t48.5 -27.5t34 -29.5t25.5 -37.5t7 -43q0 -89 -64.5 -149t-163.5 -80v-83h-20v80q-33 -5 -60 -5v-75h-20v75q-92 4 -151 53t-59 112q0 41 29.5 70.5t70.5 29.5t70.5 -29.5t29.5 -70.5
q0 -50 -46 -84q-27 -19 -27 -34q0 -10 16 -15q36 -11 67 -12v259q-39 16 -56.5 24.5t-48.5 27.5t-45.5 37.5t-26.5 49t-12 68.5q0 47 54 106.5t135 79.5v68h20v-64q19 4 44 4q10 0 16 -1v61h20v-62q40 -5 79 -18.5t72.5 -45t33.5 -72.5q0 -35 -25.5 -60.5t-61.5 -25.5
q-35 0 -60.5 25.5t-25.5 60.5zM316 253q-23 12 -60 28v-251q35 0 60 5v218zM256 468q24 -13 60 -28v230q-3 0 -8.5 0.5t-7.5 0.5q-23 0 -44 -10v-193zM406 110q0 82 -70 130v-200q70 18 70 70zM186 562q0 -46 50 -81v170q-50 -32 -50 -89z" />
    <glyph glyph-name="ampersand" unicode="&#x26;" horiz-adv-x="832" 
d="M602 427q-42 -60 -73 -144q119 -122 211 -122q7 0 12 1.5t12 8t10.5 24t3.5 44.5h3.5t7 -0.5t7.5 -0.5h2l-3 -75q-3 -68 -63.5 -120.5t-131.5 -52.5q-53 0 -93 34q-58 51 -70 63q-72 -97 -199 -97q-92 0 -150 46t-58 117q0 50 14 88.5t41.5 64.5t55.5 42t67 32
q-39 76 -39 147q0 81 53 132t157 51q78 0 131.5 -35.5t53.5 -82.5q0 -79 -158 -152q50 -78 108 -140q17 44 31.5 74t37 60.5t53 46t68.5 15.5q42 0 71 -33.5t29 -77.5q0 -45 -29 -75t-71 -30q-41 0 -70.5 29.5t-29.5 70.5q0 24 11 46q3 6 3 9t-2 3q-7 0 -14 -11zM378 70
q22 10 43 32q-117 113 -203 260q-15 -7 -23 -12q-19 -10 -19 -41t34 -90.5t78 -106.5t68 -47q12 0 22 5zM313 664q0 -72 82 -206q53 28 53 56q0 35 -40 103.5t-69 68.5q-26 0 -26 -22z" />
    <glyph glyph-name="period" unicode="." horiz-adv-x="266" 
d="M33 100q0 41 29.5 70.5t70.5 29.5t70.5 -29.5t29.5 -70.5t-29.5 -70.5t-70.5 -29.5t-70.5 29.5t-29.5 70.5z" />
    <glyph glyph-name="zero" unicode="0" 
d="M33 350q0 149 76 254.5t184 105.5t184 -105.5t76 -254.5t-76 -254.5t-184 -105.5t-184 105.5t-76 254.5zM223 350q0 -121 2.5 -185.5t11 -101t20.5 -45t36 -8.5t36 8.5t20.5 45t11 101t2.5 185.5t-2.5 185.5t-11 101t-20.5 45t-36 8.5t-36 -8.5t-20.5 -45t-11 -101
t-2.5 -185.5z" />
    <glyph glyph-name="one" unicode="1" horiz-adv-x="386" 
d="M16 20h20q34 0 47 13.5t13 46.5v460q0 14 -12.5 27t-27.5 13h-21v20q50 0 96 21.5t135 78.5h20v-620q0 -33 13 -46.5t47 -13.5h20v-20h-350v20z" />
    <glyph glyph-name="two" unicode="2" horiz-adv-x="608" 
d="M65 42q0 -7 -0.5 -16t-0.5 -16h-20q1 48 1 148q0 33 17 56t44 37t59.5 27t65.5 32t60 44.5t44 71.5t17 108q0 55 -38 97.5t-81 42.5q-37 0 -63 -23t-26 -63q0 -68 40 -68q22 0 51 20h20q30 -23 30 -59q0 -44 -40.5 -83t-90.5 -39q-48 0 -82.5 30.5t-34.5 86.5
q0 85 75.5 159.5t196.5 74.5q116 0 189.5 -61t73.5 -115q0 -55 -28 -98t-72.5 -69t-98.5 -46.5t-108.5 -36t-99 -31.5t-72.5 -40t-28 -55v-21q24 25 77.5 54t108.5 29q51 0 115.5 -15t84.5 -15q35 0 67 19t32 61h20v-100q0 -49 -63.5 -114.5t-128.5 -65.5q-49 0 -82.5 12
t-50 28.5t-29 33.5t-30 29t-43.5 12q-23 0 -50.5 -16t-27.5 -47z" />
    <glyph glyph-name="three" unicode="3" horiz-adv-x="572" 
d="M105 88q-14 4 -17 4q-9 0 -9 -6q0 -5 8 -16q47 -60 153 -60q64 0 88 56t24 150q0 81 -18 117.5t-68 36.5h-60v20h32q53 0 63.5 26t10.5 126q0 43 -1 63t-5.5 43.5t-15 32.5t-28.5 9q-54 0 -95 -26q-11 -8 -11 -10q0 -4 26 -4q39 0 66.5 -30t27.5 -70q0 -41 -29.5 -70.5
t-70.5 -29.5t-70.5 29.5t-29.5 70.5v4q0 67 56.5 111.5t129.5 44.5q90 0 161.5 -45t71.5 -118q0 -53 -35.5 -98.5t-100.5 -65.5q183 -29 183 -167q0 -57 -28 -102t-73.5 -71t-97 -39.5t-103.5 -13.5q-83 0 -146 47t-63 121q0 47 34.5 84.5t80.5 37.5q41 0 70.5 -29.5
t29.5 -70.5t-29.5 -70.5t-70.5 -29.5q-17 0 -41 8z" />
    <glyph glyph-name="four" unicode="4" horiz-adv-x="569" 
d="M165 20h20q34 0 47 13.5t13 46.5v140h-235l274 480h151v-440h43q27 0 37 9t10 31h20q0 -48 -13.5 -64t-53.5 -16h-43v-140q0 -33 13 -46.5t47 -13.5h20v-20h-350v20zM56 260h189v330z" />
    <glyph glyph-name="five" unicode="5" horiz-adv-x="563" 
d="M88 92q-9 0 -9 -6q0 -8 11 -20q53 -56 150 -56q34 0 55.5 19t31 55.5t12.5 70t3 81.5q0 76 -37.5 130.5t-89.5 54.5q-63 0 -116 -88l-2 -15q-19 2 -20 2l47 380h20q81 -17 139 -17q63 0 174 27h19v-29q0 -41 -45 -77.5t-98.5 -55t-90.5 -18.5h-119l-19 -151q64 75 183 75
q63 0 117.5 -23.5t91 -74.5t36.5 -120q0 -76 -46 -134t-111.5 -85t-134.5 -27q-83 0 -146 47t-63 121q0 47 33.5 84.5t77.5 37.5t74 -29t30 -71q0 -41 -29.5 -70.5t-70.5 -29.5q-11 0 -30 6t-28 6z" />
    <glyph glyph-name="six" unicode="6" horiz-adv-x="584" 
d="M511 580q0 -41 -29.5 -70.5t-70.5 -29.5t-70.5 29.5t-29.5 70.5q0 33 20.5 58.5t52.5 37.5q17 6 17 9q0 5 -16.5 8t-24.5 3q-27 0 -48 -12.5t-34 -29.5t-22.5 -46t-14 -52t-7 -57t-3 -51t-0.5 -44q49 46 100 46q105 0 162.5 -66t57.5 -155q0 -92 -74 -165.5t-186 -73.5
q-108 0 -184 105.5t-76 254.5q0 145 93 257.5t197 112.5q77 0 133.5 -35.5t56.5 -104.5zM291 10q80 0 80 205q0 112 -12 163.5t-40 51.5q-38 0 -88 -53q0 -219 10 -293t50 -74z" />
    <glyph glyph-name="seven" unicode="7" horiz-adv-x="489" 
d="M55 670q22 0 77.5 20t80.5 20q53 0 111 -21.5t74 -21.5q28 0 52 23h20q3 -22 3 -42q0 -51 -21 -99t-51.5 -91t-60.5 -92t-51 -124t-21 -166q0 -30 11 -76h-210q-11 44 -11 76q0 65 31 121.5t79 100t98.5 84t97.5 92t68 106.5q-67 -53 -144 -53q-33 0 -84.5 13t-68.5 13
q-70 0 -74 -86l-1 -22h-20z" />
    <glyph glyph-name="eight" unicode="8" 
d="M172 332q-97 69 -97 172q0 84 66 145t170 61q91 0 141.5 -41.5t50.5 -98.5q0 -42 -29.5 -78.5t-83.5 -53.5q80 -22 122 -81.5t42 -132.5q0 -94 -66.5 -164t-182.5 -70q-123 0 -199 57.5t-76 132.5q0 48 36 89t106 63zM406 128q0 30 -9.5 54.5t-23 40.5t-37 31t-42 23
t-49 21t-47.5 21q-36 -66 -36 -141q0 -73 38 -120.5t105 -47.5q43 0 72 30t29 88zM226 591q0 -26 8 -47t18.5 -34t32.5 -25.5t37.5 -19t46.5 -18.5q26 52 26 120q0 54 -22 88.5t-72 34.5q-31 0 -53 -27.5t-22 -71.5z" />
    <glyph glyph-name="nine" unicode="9" 
d="M46 135q0 41 29.5 70.5t70.5 29.5t70.5 -29.5t29.5 -70.5q0 -59 -52 -88q-27 -15 -27 -19q0 -6 19 -10t29 -4q30 1 53 14t37 37.5t22.5 49.5t12.5 62.5t5 64t1 65.5q-35 -47 -80 -47q-106 0 -163 61.5t-57 149.5q0 95 64.5 167t175.5 72q108 0 184 -105.5t76 -254.5
t-76 -254.5t-184 -105.5q-240 0 -240 145zM346 357q0 201 -9.5 267t-50.5 66q-35 0 -47.5 -46t-12.5 -159q0 -109 9.5 -157t36.5 -48q24 0 49 24t25 53z" />
    <glyph glyph-name="question" unicode="?" horiz-adv-x="562" 
d="M140 600q41 0 70.5 -29.5t29.5 -70.5t-29.5 -70.5t-70.5 -29.5q-55 0 -84.5 29t-29.5 74q0 76 73.5 141.5t194.5 65.5q61 0 111.5 -19t80 -47.5t45.5 -57.5t16 -52q0 -50 -23.5 -88t-58.5 -58.5t-76.5 -37t-76.5 -25t-58.5 -20.5t-23.5 -27v-68h-20q0 10 0.5 30t0.5 38
q0 26 12 46.5t29 37.5t34 37.5t29 55t12 79.5q0 55 -38 97.5t-81 42.5q-55 0 -109 -56q-24 -26 -24 -34q0 -2 2 -2q3 0 10 3q28 15 53 15zM120 91q0 41 29.5 70.5t70.5 29.5t70.5 -29.5t29.5 -70.5t-29.5 -70.5t-70.5 -29.5t-70.5 29.5t-29.5 70.5z" />
    <glyph glyph-name="A" unicode="A" horiz-adv-x="776" 
d="M17 20h20q59 0 87 91l182 589h160l187 -621q18 -59 87 -59h20v-20h-390v20h20q49 0 49 34q0 12 -4 25l-60 196h-179l-38 -123q-7 -22 -7 -42q0 -46 34 -68t72 -22h20v-20h-260v20zM286 568l-84 -273h167z" />
    <glyph glyph-name="B" unicode="B" horiz-adv-x="749" 
d="M35 20h20q34 0 47 13.5t13 46.5v540q0 33 -13 46.5t-47 13.5h-20v20h404q106 0 165.5 -50t59.5 -118q0 -50 -34 -92.5t-96 -61.5q85 -18 133 -72.5t48 -119.5q0 -77 -66 -131.5t-190 -54.5h-424v20zM385 20h29q40 0 50.5 38.5t10.5 133.5q0 82 -25 127.5t-69 45.5h-56
v-285q0 -33 13 -46.5t47 -13.5zM379 680h-54v-295h57q69 0 69 148q0 147 -72 147z" />
    <glyph glyph-name="C" unicode="C" horiz-adv-x="706" 
d="M403 11q63 0 110.5 18.5t72.5 45.5t40 65t19 68t4 64h20q0 -282 -276 -282q-155 0 -258 104.5t-103 255.5q0 150 99 255t240 105q57 0 102 -11t70.5 -22.5t35.5 -11.5q19 0 35 35h20v-296h-21q-20 134 -75.5 210t-164.5 76q-120 0 -120 -340q0 -339 150 -339z" />
    <glyph glyph-name="D" unicode="D" horiz-adv-x="752" 
d="M35 20h20q34 0 47 13.5t13 46.5v540q0 33 -13 46.5t-47 13.5h-20v20h342q143 0 242.5 -101t99.5 -249t-99.5 -249t-242.5 -101h-342v20zM386 680h-61v-600q0 -33 13 -46.5t47 -13.5q28 0 47.5 8t31.5 31t19 43t10 67t3.5 79t0.5 102t-0.5 102t-3.5 79t-10 67t-19 43
t-31.5 31t-46.5 8z" />
    <glyph glyph-name="E" unicode="E" horiz-adv-x="693" 
d="M33 20h20q34 0 47 13.5t13 46.5v540q0 33 -13 46.5t-47 13.5h-20v20h585v-258h-20q-1 73 -66 155.5t-139 82.5h-70v-290h22q51 0 96.5 47.5t46.5 82.5h20v-300h-20q-1 35 -46.5 82.5t-96.5 47.5h-22v-270q0 -33 13 -46.5t47 -13.5h40q49 0 98 51.5t77.5 116.5t29.5 112
h20v-300h-615v20z" />
    <glyph glyph-name="F" unicode="F" horiz-adv-x="609" 
d="M32 20h20q34 0 47 13.5t13 46.5v540q0 33 -13 46.5t-47 13.5h-20v20h555v-258h-20q-1 73 -66 155.5t-139 82.5h-40v-290h22q50 0 81 45.5t32 84.5h20v-300h-20q-1 39 -32 84.5t-81 45.5h-22v-270q0 -33 13 -46.5t47 -13.5h20v-20h-370v20z" />
    <glyph glyph-name="G" unicode="G" horiz-adv-x="801" 
d="M674 0q-36 62 -76 62q-21 0 -54.5 -18t-77.5 -36t-91 -18q-142 0 -241.5 105.5t-99.5 254.5q0 150 99 255t240 105q56 0 101.5 -11.5t73 -23t38.5 -11.5q22 0 38 36h20v-260q0 -4 1 -6h-21q-19 126 -77.5 191t-171.5 65q-120 0 -120 -340t120 -340q109 0 109 70v200
q0 33 -13 46.5t-47 13.5h-20v20h370v-20h-20q-34 0 -47 -13.5t-13 -46.5v-280h-20z" />
    <glyph glyph-name="H" unicode="H" horiz-adv-x="842" 
d="M36 20h20q34 0 47 13.5t13 46.5v540q0 33 -13 46.5t-47 13.5h-20v20h370v-20h-20q-34 0 -47 -13.5t-13 -46.5v-235h190v235q0 33 -13 46.5t-47 13.5h-20v20h370v-20h-20q-34 0 -47 -13.5t-13 -46.5v-540q0 -33 13 -46.5t47 -13.5h20v-20h-370v20h20q34 0 47 13.5t13 46.5
v285h-190v-285q0 -33 13 -46.5t47 -13.5h20v-20h-370v20z" />
    <glyph glyph-name="I" unicode="I" horiz-adv-x="420" 
d="M25 20h20q34 0 47 13.5t13 46.5v540q0 33 -13 46.5t-47 13.5h-20v20h370v-20h-20q-34 0 -47 -13.5t-13 -46.5v-540q0 -33 13 -46.5t47 -13.5h20v-20h-370v20z" />
    <glyph glyph-name="J" unicode="J" horiz-adv-x="599" 
d="M90 65q50 -52 118 -52q48 0 62.5 39t14.5 138v430q0 33 -13 46.5t-47 13.5h-20v20h370v-20h-20q-34 0 -47 -13.5t-13 -46.5v-410q0 -103 -74.5 -161.5t-173.5 -58.5q-94 0 -162 53.5t-68 151.5q0 41 29.5 70.5t70.5 29.5t70.5 -29.5t29.5 -70.5t-29.5 -70.5t-70.5 -29.5
q-39 0 -39 -11q0 -6 12 -19z" />
    <glyph glyph-name="K" unicode="K" horiz-adv-x="841" 
d="M726 700v-20h-20q-85 0 -166 -82l-84 -86l239 -433q32 -59 104 -59h20v-20h-390v20h20q21 0 21 19q0 14 -13 37l-131 238v-234q0 -33 13 -46.5t47 -13.5h20v-20h-370v20h20q34 0 47 13.5t13 46.5v540q0 33 -13 46.5t-47 13.5h-20v20h370v-20h-20q-34 0 -47 -13.5
t-13 -46.5v-214l180 186q11 11 11 29q0 22 -14 40.5t-35 18.5h-22v20h280z" />
    <glyph glyph-name="L" unicode="L" horiz-adv-x="629" 
d="M392 680h-10q-34 0 -47 -13.5t-13 -46.5v-540q0 -33 13 -46.5t47 -13.5q48 0 97.5 54t78 121.5t29.5 114.5h20v-310h-575v20h20q34 0 47 13.5t13 46.5v540q0 33 -13 46.5t-47 13.5h-10v20h350v-20z" />
    <glyph glyph-name="M" unicode="M" horiz-adv-x="892" 
d="M485 20h20q34 0 47 13.5t13 46.5v494l-148 -574h-81l-181 558v-408q0 -12 4.5 -32t13 -43t25 -39t37.5 -16h20v-20h-220v20h20q39 0 59.5 39.5t20.5 70.5v490q0 20 -19.5 40t-40.5 20h-20v20h274l138 -426l110 426h278v-20h-20q-34 0 -47 -13.5t-13 -46.5v-540
q0 -33 13 -46.5t47 -13.5h20v-20h-370v20z" />
    <glyph glyph-name="N" unicode="N" horiz-adv-x="742" 
d="M152 586v-436q0 -12 4.5 -32t13 -43t25 -39t37.5 -16h20v-20h-220v20h20q39 0 59.5 39.5t20.5 70.5v490q0 33 -13 46.5t-47 13.5h-20v20h279l261 -508v358q0 12 -4.5 32t-13 43t-25 39t-37.5 16h-20v20h220v-20h-20q-39 0 -59.5 -39.5t-20.5 -70.5v-570h-157z" />
    <glyph glyph-name="O" unicode="O" horiz-adv-x="749" 
d="M33 350q0 149 99.5 254.5t241.5 105.5t242 -105.5t100 -254.5t-100 -254.5t-242 -105.5t-241.5 105.5t-99.5 254.5zM374 10q27 0 47 9.5t33.5 31t21.5 47t12 68.5t5 82.5t1 101.5t-1 101.5t-5 82.5t-12 68.5t-21.5 47t-33.5 31t-47 9.5t-47 -9.5t-33.5 -31t-21.5 -47
t-12 -68.5t-5 -82.5t-1 -101.5t1 -101.5t5 -82.5t12 -68.5t21.5 -47t33.5 -31t47 -9.5z" />
    <glyph glyph-name="P" unicode="P" horiz-adv-x="653" 
d="M403 20v-20h-370v20h20q34 0 47 13.5t13 46.5v540q0 33 -13 46.5t-47 13.5h-20v20h318q141 0 212.5 -57t71.5 -147t-71.5 -147.5t-212.5 -57.5h-28v-211q0 -33 13 -46.5t47 -13.5h20zM351 311q44 0 56 40.5t12 144.5t-12 144t-56 40h-28v-351q0 -18 28 -18z" />
    <glyph glyph-name="Q" unicode="Q" horiz-adv-x="743" 
d="M25 350q0 149 99.5 254.5t241.5 105.5t242 -105.5t100 -254.5q0 -117 -65 -211q3 -35 3 -72q0 -102 -42.5 -149t-133.5 -47q-64 0 -101 25t-37 62q0 19 3 34q-132 12 -221 114.5t-89 243.5zM246 350q0 -114 5.5 -179.5t24.5 -104.5v13q0 43 19.5 68.5t45.5 25.5
q33 0 53 -8t27.5 -24t9.5 -31t2.5 -38t2.5 -36q31 33 40.5 105t9.5 209q0 62 -1 101.5t-5 82.5t-12 68.5t-21.5 47t-33.5 31t-47 9.5t-47 -9.5t-33.5 -31t-21.5 -47t-12 -68.5t-5 -82.5t-1 -101.5zM626 84q0 8 -2 30q-69 -84 -172 -113q24 -24 80 -24q33 0 63.5 37.5
t30.5 69.5zM341 143q-46 0 -46 -84q0 -17 7 -28q8 -13 39 -19q5 14 22.5 43.5t17.5 47.5q0 17 -12 28.5t-28 11.5z" />
    <glyph glyph-name="R" unicode="R" horiz-adv-x="770" 
d="M32 20h20q34 0 47 13.5t13 46.5v540q0 33 -13 46.5t-47 13.5h-20v20h364q124 0 194 -45.5t70 -126.5q0 -62 -40.5 -103.5t-116.5 -58.5q82 -14 116.5 -48.5t34.5 -92.5v-5.5v-14.5t-0.5 -25t-0.5 -41.5v-58.5q0 -18 24 -18q40 0 40 152h20q0 -79 -9 -125.5t-32 -68.5
t-48 -27.5t-72 -5.5q-48 0 -95.5 30t-47.5 73l1 100v105q0 21 -18.5 40.5t-49.5 19.5h-44v-275q0 -33 13 -46.5t47 -13.5h20v-20h-370v20zM322 375h44q29 0 46.5 9t25.5 31.5t10 45.5t2 67q0 34 -1 53.5t-5 41t-12 32.5t-21.5 18t-34.5 7h-54v-305z" />
    <glyph glyph-name="S" unicode="S" horiz-adv-x="633" 
d="M42 10v291h20q60 -131 106 -196.5t105 -84.5q31 -10 75 -10q36 0 54.5 24.5t18.5 62.5q0 46 -21 80t-54.5 55t-74 38t-81 36t-74 42.5t-54.5 63.5t-21 94q0 62 78.5 133t189.5 71q27 0 76 -22t77 -22q43 0 59 34h20v-250h-20q-4 89 -75 164.5t-137 75.5q-35 0 -56.5 -28
t-21.5 -86q0 -32 20.5 -55t53 -36.5t71.5 -25.5t78 -27.5t71.5 -37.5t53 -60.5t20.5 -91.5q0 -21 -6.5 -49.5t-24.5 -64.5t-45 -66.5t-72.5 -51t-102.5 -20.5q-36 0 -116.5 25t-115.5 25q-38 0 -54 -30h-20z" />
    <glyph glyph-name="T" unicode="T" horiz-adv-x="707" 
d="M538 20v-20h-370v20h20q34 0 47 13.5t13 46.5v600h-35q-30 0 -70 -48t-67.5 -112t-27.5 -108h-20v288h650v-288h-20q0 44 -27.5 108t-67.5 112t-70 48h-35v-600q0 -33 13 -46.5t47 -13.5h20z" />
    <glyph glyph-name="U" unicode="U" horiz-adv-x="724" 
d="M398 700v-20h-20q-34 0 -47 -13.5t-13 -46.5v-441q0 -132 138 -132q51 0 86.5 34t35.5 99v370q0 12 -4.5 32t-13 43t-25 39t-37.5 16h-20v20h220v-20h-20q-39 0 -59.5 -39.5t-20.5 -70.5v-390q0 -47 -14.5 -80.5t-36 -52.5t-56 -30t-65.5 -14t-73 -3q-100 0 -172.5 47
t-72.5 132v441q0 33 -13 46.5t-47 13.5h-20v20h370z" />
    <glyph glyph-name="V" unicode="V" horiz-adv-x="747" 
d="M410 700v-20h-20q-63 0 -63 -40q0 -8 3 -17l142 -471l117 390q7 24 7 44q0 48 -33.5 71t-71.5 23h-20v20h260v-20h-20q-60 0 -87 -90l-177 -590h-148l-182 605q-23 75 -81 75h-20v20h394z" />
    <glyph glyph-name="W" unicode="W" horiz-adv-x="972" 
d="M26 680v20h308v-20q-25 0 -25 -32q0 -13 4 -29l97 -387l58 224l-39 149q-7 28 -11 39.5t-14.5 22.5t-27.5 13v20h303v-20h-20q-20 0 -20 -31q0 -14 4 -30l97 -387l80 310q7 25 7 50q0 41 -18 64.5t-42 23.5h-20v20h200v-20h-20q-49 0 -81 -122l-144 -558h-117l-106 415
l-107 -415h-117l-157 611q-6 25 -10.5 37t-15 22t-26.5 10h-20z" />
    <glyph glyph-name="X" unicode="X" horiz-adv-x="835" 
d="M310 20h20v-20h-290v20h20q32 0 72.5 47t64.5 91l98 178l-174 284q-2 4 -7.5 13t-7.5 12t-6.5 9.5t-7 9t-7.5 6.5t-9 5.5t-10 3t-12 1.5h-20v20h380v-20h-28q-38 0 -38 -28q0 -13 10 -29l117 -189l38 71q26 49 26 95q0 36 -15.5 58t-38.5 22h-20v20h250v-20h-20
q-32 0 -73 -47t-64 -89l-71 -130l207 -334q37 -60 96 -60h20v-20h-410v20h28q34 0 34 25q0 11 -10 34q-16 36 -40 75.5t-56 87.5t-48 74l-67 -123q-19 -34 -19 -72q0 -43 26 -72t62 -29z" />
    <glyph glyph-name="Y" unicode="Y" horiz-adv-x="739" 
d="M274 347q-18 29 -54.5 92t-62.5 105t-51 76q-4 5 -13.5 18.5t-13 18t-10.5 11.5t-14 9.5t-16 2.5h-20v20h380v-20h-28q-37 0 -37 -26q0 -14 12 -34l124 -203l48 88q26 47 26 94q0 36 -15.5 58.5t-38.5 22.5h-20v20h250v-20h-20q-32 0 -73.5 -47.5t-64.5 -89.5l-78 -144
v-319q0 -33 13 -46.5t47 -13.5h20v-20h-370v20h20q34 0 47 13.5t13 46.5v267z" />
    <glyph glyph-name="Z" unicode="Z" horiz-adv-x="652" 
d="M589 700v-20l-313 -660h87q49 0 103 56.5t87.5 127t34.5 116.5h20v-320h-565v20l312 660h-37q-40 0 -96.5 -50.5t-97.5 -112.5t-41 -97h-20v280h526z" />
    <glyph glyph-name="a" unicode="a" horiz-adv-x="574" 
d="M177 244q42 0 83 36t41 73v66q0 47 -70 47q-25 0 -37 -4q-13 -4 -13 -10q0 -1 2 -3q73 -32 73 -88q0 -37 -26 -63.5t-64 -26.5t-64 26.5t-26 66.5q0 62 55 94t135 32q62 0 107.5 -11.5t67 -29t31 -32.5t9.5 -27v-310q0 -35 14 -35q9 0 17.5 16t8.5 38v32h20v-62
q0 -39 -30 -59t-74 -20q-43 0 -81 16.5t-50 43.5q-25 -27 -62 -43.5t-74 -16.5q-65 0 -100 35.5t-35 85.5q0 53 38 93t104 40zM225 71q0 -13 8.5 -23.5t20.5 -10.5q16 0 31.5 20.5t15.5 51.5v187q-14 -18 -35.5 -36t-29.5 -34.5t-10 -53.5q-1 -11 -1 -101z" />
    <glyph glyph-name="b" unicode="b" horiz-adv-x="564" 
d="M31 680v20h240v-271q44 61 136 61q46 0 78 -32.5t44 -69.5t12 -70v-116q0 -86 -57.5 -149t-155.5 -63q-31 0 -54 13t-34.5 29t-28.5 29t-37 13q-22 0 -42.5 -23t-20.5 -51h-20v640q0 14 -12.5 27t-27.5 13h-20zM334 448q-22 0 -42.5 -30.5t-20.5 -86.5v-271
q0 -15 13 -32.5t27 -17.5q9 0 15 2t15.5 10t14.5 30.5t5 57.5v300q0 18 -7.5 28t-19.5 10z" />
    <glyph glyph-name="c" unicode="c" horiz-adv-x="530" 
d="M282 325q0 37 26 63.5t64 26.5q44 0 74 -39q4 -6 8 -6t4 8t-4 16q-17 33 -54 55t-75 22q-40 0 -66.5 -27.5t-26.5 -83.5v-260q0 -47 27.5 -68.5t52.5 -21.5q61 0 111 57t53 113h21q-7 -27 -12 -43.5t-21.5 -47.5t-37 -50t-57 -34t-82.5 -15q-110 0 -182.5 72.5
t-72.5 177.5q0 118 83.5 184t188.5 66q77 0 129 -36.5t52 -103.5q0 -48 -33 -81.5t-80 -33.5q-38 0 -64 26.5t-26 63.5z" />
    <glyph glyph-name="d" unicode="d" horiz-adv-x="575" 
d="M524 20h20v-20h-240v50q-31 -60 -87 -60q-97 0 -145 61.5t-48 150.5v116q0 51 48 111.5t116 60.5q78 0 116 -51v201q0 14 -12.5 27t-27.5 13h-20v20h240v-640q0 -14 12.5 -26t27.5 -14zM241 448q-12 0 -19.5 -10t-7.5 -28v-300q0 -83 37 -83q19 0 36 25t17 53v226
q0 56 -20.5 86.5t-42.5 30.5z" />
    <glyph glyph-name="e" unicode="e" horiz-adv-x="530" 
d="M312 10q61 0 111 57t53 113h21q-7 -27 -12 -43.5t-21.5 -47.5t-37 -50t-57 -34t-82.5 -15q-110 0 -182.5 72.5t-72.5 177.5q0 104 73 177t177 73q103 0 159 -60t56 -180h-265v-150q0 -47 27.5 -68.5t52.5 -21.5zM232 380v-110h80v110q0 57 -6.5 73.5t-23.5 16.5
q-19 0 -34.5 -21.5t-15.5 -68.5z" />
    <glyph glyph-name="f" unicode="f" horiz-adv-x="532" 
d="M24 0v20h20q34 0 47 13.5t13 46.5v380h-50v20h50v60q0 51 42.5 93t104.5 64.5t125 22.5q72 0 120 -31.5t48 -95.5q0 -40 -26 -66.5t-64 -26.5t-64 26t-26 64q0 28 17 51t43 34q17 7 17 14q0 11 -40 11q-48 0 -82.5 -29t-34.5 -81v-110h90v-20h-90v-380q0 -33 13 -46.5
t47 -13.5h20v-20h-340z" />
    <glyph glyph-name="g" unicode="g" horiz-adv-x="598" 
d="M67 335q0 65 63 110t153 45q35 0 63 -7q-23 30 -23 65q0 97 125 97q34 0 57.5 -23.5t23.5 -57.5t-23.5 -58t-57.5 -24t-58 24t-24 58q0 18 -10 18q-13 0 -13 -34q0 -52 42 -76q115 -66 115 -137q0 -64 -63.5 -109.5t-153.5 -45.5q-13 0 -41 5.5t-43 5.5t-26 -13.5
t-11 -26.5q0 -26 34 -26h199q67 0 117.5 -50t50.5 -104q0 -49 -28 -85.5t-70.5 -55t-82 -27t-74.5 -8.5h-117q-70 0 -119.5 35.5t-49.5 78.5q0 51 72 73q-23 15 -37 41t-14 51q0 53 29.5 88t87.5 45q-43 21 -68 55t-25 73zM144 -35q-21 0 -33.5 -17.5t-12.5 -46.5
q0 -36 36 -61t87 -25q20 0 54.5 -1t44.5 -1q60 0 81.5 23t21.5 78q0 22 -22 36.5t-66 14.5h-191zM255 406v-142q0 -64 28 -64t28 67v136q0 67 -28 67t-28 -64z" />
    <glyph glyph-name="h" unicode="h" horiz-adv-x="623" 
d="M315 20v-20h-279v20h20q15 0 27.5 13t12.5 27v580q0 14 -12.5 27t-27.5 13h-20v20h240v-271q44 61 136 61q53 0 93.5 -23t40.5 -57v-350q0 -14 12.5 -27t27.5 -13h20v-20h-280v20q15 0 27.5 13t12.5 27v350q0 18 -7.5 28t-19.5 10q-22 0 -42.5 -30.5t-20.5 -86.5v-271
q0 -14 12.5 -27t26.5 -13z" />
    <glyph glyph-name="i" unicode="i" horiz-adv-x="343" 
d="M302 20h20v-20h-300v20h20q15 0 27.5 13t12.5 27v360q0 14 -12.5 27t-27.5 13h-20v20h240v-420q0 -14 12.5 -27t27.5 -13zM82 598q0 38 26 64t64 26t64 -26t26 -64t-26 -64t-64 -26t-64 26t-26 64z" />
    <glyph glyph-name="j" unicode="j" horiz-adv-x="307" 
d="M112 -100q0 -22 -17 -52q-3 -6 -3 -10q0 -6 6 -6q34 0 34 68q0 27 -7.5 43.5t-16 22.5t-27.5 15q1 12 1 439q0 14 -12.5 27t-27.5 13h-20v20h240v-540q0 -55 -68 -96.5t-143 -41.5q-52 0 -85.5 24t-33.5 74q0 38 26 64t64 26t64 -26t26 -64zM262 600q0 -38 -26 -64
t-64 -26t-64 26t-26 64t26 64t64 26t64 -26t26 -64z" />
    <glyph glyph-name="k" unicode="k" horiz-adv-x="674" 
d="M317 20v-20h-280v20h20q15 0 27.5 13t12.5 27v580q0 14 -12.5 27t-27.5 13h-20v20h240v-416q93 120 93 134q0 16 -9.5 29t-21.5 13h-22v20h225v-20h-20q-38 0 -71 -18t-80 -71l209 -311q11 -16 31.5 -28t35.5 -12h20v-20h-330v20q12 0 21.5 7t9.5 18q0 6 -5 14l-86 128
v-127q0 -14 12.5 -27t27.5 -13z" />
    <glyph glyph-name="l" unicode="l" horiz-adv-x="350" 
d="M307 20h20v-20h-300v20h20q15 0 27.5 13t12.5 27v580q0 14 -12.5 27t-27.5 13h-20v20h240v-640q0 -14 12.5 -27t27.5 -13z" />
    <glyph glyph-name="m" unicode="m" horiz-adv-x="916" 
d="M39 460v20h240v-62q38 72 136 72q43 0 79.5 -16t49.5 -42q17 35 52.5 46.5t88.5 11.5q51 0 92.5 -32t41.5 -68v-330q0 -14 12.5 -27t27.5 -13h20v-20h-280v20q15 0 27.5 13t12.5 27v350q0 24 -9.5 36.5t-23.5 12.5q-21 0 -39 -27t-18 -71v-301q0 -14 12.5 -27t27.5 -13
v-20h-260v20q15 0 27.5 13t12.5 27v350q0 18 -7.5 28t-19.5 10q-22 0 -42.5 -30.5t-20.5 -86.5v-271q0 -14 12.5 -27t27.5 -13v-20h-280v20h20q15 0 27.5 13t12.5 27v360q0 14 -12.5 27t-27.5 13h-20z" />
    <glyph glyph-name="n" unicode="n" horiz-adv-x="637" 
d="M35 460v20h240v-62q38 72 136 72q51 0 92.5 -32t41.5 -68v-330q0 -14 12.5 -27t27.5 -13h20v-20h-280v20q15 0 27.5 13t12.5 27v350q0 18 -7.5 28t-19.5 10q-22 0 -42.5 -30.5t-20.5 -86.5v-271q0 -14 12.5 -27t27.5 -13v-20h-280v20h20q15 0 27.5 13t12.5 27v360
q0 14 -12.5 27t-27.5 13h-20z" />
    <glyph glyph-name="o" unicode="o" horiz-adv-x="567" 
d="M33 240q0 104 73 177t177 73t177.5 -73t73.5 -177t-73.5 -177t-177.5 -73t-177 73t-73 177zM233 380v-280q0 -32 4.5 -52t13.5 -27.5t15 -9t17 -1.5t17 1.5t15 9t13.5 27.5t4.5 52v280q0 32 -4.5 52t-13.5 27.5t-15 9t-17 1.5t-17 -1.5t-15 -9t-13.5 -27.5t-4.5 -52z" />
    <glyph glyph-name="p" unicode="p" horiz-adv-x="569" 
d="M313 -130h20v-20h-300v20h20q15 0 27.5 13t12.5 27v510q0 14 -12.5 27t-27.5 13h-20v20h240v-51q30 61 87 61q50 0 86.5 -21t57 -56.5t30 -76.5t9.5 -87q0 -52 -14.5 -109t-49 -103.5t-80.5 -46.5q-91 0 -126 67v-147q0 -14 12.5 -26t27.5 -14zM319 47q34 0 34 103v156
q0 137 -36 137q-14 0 -29 -19.5t-15 -46.5v-235q0 -38 14.5 -66.5t31.5 -28.5z" />
    <glyph glyph-name="q" unicode="q" horiz-adv-x="569" 
d="M236 -150v20h20q15 0 27.5 13t12.5 27v147q-35 -67 -126 -67q-46 0 -80.5 46.5t-49 103.5t-14.5 109q0 46 9.5 87t30 76.5t57 56.5t86.5 21q56 0 87 -61v51h240v-20h-20q-15 0 -27.5 -13t-12.5 -27v-510q0 -14 12.5 -27t27.5 -13h20v-20h-300zM250 47q17 0 31.5 26
t14.5 61v243q0 27 -15 46.5t-29 19.5q-36 0 -36 -137v-156q0 -103 34 -103z" />
    <glyph glyph-name="r" unicode="r" horiz-adv-x="487" 
d="M32 460v20h240v-34q41 44 94 44q42 0 71 -31t29 -91q0 -38 -26 -64t-64 -26t-64 26t-26 64t26 64t64 26q11 0 11 5q0 7 -21 7q-29 0 -61.5 -22t-32.5 -52v-336q0 -14 12.5 -27t27.5 -13h20v-20h-300v20h20q15 0 27.5 13t12.5 27v360q0 14 -12.5 27t-27.5 13h-20z" />
    <glyph glyph-name="s" unicode="s" horiz-adv-x="482" 
d="M261 13q45 0 45 57q0 27 -26.5 46.5t-64 35t-75.5 35.5t-64.5 58.5t-26.5 93.5q0 71 54.5 111t130.5 40q43 0 99 -21q15 -6 31 -6q20 0 28 17h20v-180h-20q-14 37 -19.5 51.5t-20.5 43t-29 41t-37 23.5t-51 11q-17 0 -31.5 -15.5t-14.5 -37.5q0 -55 120 -111
q39 -18 57 -28t40 -29t30.5 -45.5t8.5 -64.5q0 -55 -45.5 -102t-133.5 -47q-46 0 -93.5 22.5t-59.5 22.5q-25 0 -51 -35h-20v225h20q4 -37 34.5 -86.5t62.5 -76.5q59 -49 102 -49z" />
    <glyph glyph-name="t" unicode="t" horiz-adv-x="333" 
d="M217 625h20v-145h69v-20h-69v-380q0 -35 14 -35q9 0 17.5 16t8.5 38v32h20v-62q0 -39 -30 -59t-74 -20q-52 0 -94 23.5t-42 59.5v387h-40v20h6q69 2 131.5 44t62.5 101z" />
    <glyph glyph-name="u" unicode="u" horiz-adv-x="633" 
d="M321 460h-20v20h240v-420q0 -14 12.5 -27t27.5 -13h20v-20h-240v62q-16 -35 -49 -53.5t-73 -18.5q-58 0 -103 33.5t-45 86.5v310q0 14 -12.5 27t-27.5 13h-20v20h240v-410q0 -18 7.5 -28t19.5 -10q22 0 42.5 30.5t20.5 86.5v271q0 14 -12.5 27t-27.5 13z" />
    <glyph glyph-name="v" unicode="v" horiz-adv-x="601" 
d="M16 460v20h313v-20h-20q-12 0 -19.5 -8.5t-7.5 -20.5q0 -3 2 -11l111 -288l61 191q8 23 8 51q0 36 -15.5 61t-39.5 25h-20v20h193v-20h-20q-18 0 -37 -27.5t-27.5 -49t-13.5 -36.5l-110 -347h-121l-166 430q-4 12 -21 21t-30 9h-20z" />
    <glyph glyph-name="w" unicode="w" horiz-adv-x="762" 
d="M197 0l-130 429q-4 12 -15.5 21.5t-23.5 9.5v20h252v-20q-11 0 -18.5 -13.5t-3.5 -26.5l64 -214l38 147l-21 67q-5 15 -16.5 27.5t-25.5 12.5v20h253v-20q-11 0 -18.5 -13.5t-3.5 -26.5l63 -209l30 115q14 48 4 91t-43 43v20h154v-20h-20q-37 0 -84 -174l-74 -286h-91
l-96 316l-81 -316h-93z" />
    <glyph glyph-name="x" unicode="x" horiz-adv-x="653" 
d="M37 0v20q24 0 115 96l92 97l-120 208q-9 14 -30 26.5t-42 12.5v20h313v-20q-14 0 -24 -9.5t-10 -20.5q0 -6 2 -9l51 -88l47 50q9 11 9 33q0 44 -35 44v20h151v-20q-23 0 -104 -84l-58 -61l150 -259q8 -14 33 -25t47 -11v-20h-323v20q14 0 24.5 9.5t10.5 20.5q0 6 -3 10
l-78 134l-49 -52q-9 -9 -16 -33.5t-7 -47.5q0 -41 25 -41v-20h-171z" />
    <glyph glyph-name="y" unicode="y" horiz-adv-x="583" 
d="M28 460v20h310v-20q-13 0 -26 -10.5t-13 -22.5q0 -3 2 -7l106 -246l48 151q8 28 8 62q0 73 -42 73v20h151v-20q-17 0 -44.5 -29.5t-40.5 -71.5l-128 -399q-25 -76 -66 -114.5t-85 -38.5t-75 35.5t-31 92.5q0 37 26 63.5t64 26.5t64 -26.5t26 -63.5t-26 -63.5t-64 -26.5
q-25 0 -25 -3q0 -8 15 -11.5t26 -3.5q37 0 73.5 35.5t58.5 103.5l11 34h-67l-189 418q-7 14 -29.5 28t-37.5 14z" />
    <glyph glyph-name="z" unicode="z" horiz-adv-x="547" 
d="M45 20l229 440h-20q-15 0 -42 -9t-59.5 -27t-56 -53.5t-23.5 -80.5h-20v190h424v-20l-229 -440h22q53 0 133 85t80 135h20v-240h-458v20z" />
    <glyph glyph-name="K22" unicode="&#x2222;" horiz-adv-x="1315" 
d="M522 106l-247 243l222 221v-102h172q-3 30 -3 53q0 26 4 45t9 29t12 16t12 7.5t10 1.5q43 -3 43 -52q0 -116 -234 -462zM933 468h154q-3 30 -3 53q0 26 4 45t9 29t12 16t12 7.5t10 1.5q43 -3 43 -52q0 -116 -234 -462h-211q100 155 204 362zM275 697v-696h-59v696h59z
M194 697v-696h-35v696h35zM138 697v-696h-21v696h21zM1277 106h-134l134 208v-208zM96 697v-696h-7v696h7zM862 697h120q-30 -30 -56 -77q-32 50 -64 77z" />
    <glyph glyph-name="CR" horiz-adv-x="500" 
 />
    </font>
</defs>
</svg>
